<svg width="24" height="25" viewBox="0 0 24 25" fill="none" xmlns="http://www.w3.org/2000/svg">
<path d="M23.7274 19.7617V19.7565C23.7274 19.7565 19.1802 15.2145 19.1774 15.2123C18.8169 14.8516 18.2403 14.8594 17.8856 15.2147L15.7925 17.3164C14.9788 18.1303 13.9296 17.4081 11.9155 15.7658C10.583 14.6792 9.04989 13.2181 7.72058 11.5708C6.7877 10.415 5.96275 9.20129 6.81498 8.34926C6.81719 8.34705 8.91667 6.25298 8.91627 6.25078L8.91788 6.24636C9.29464 5.8696 9.25813 5.29242 8.91407 4.94795V4.94274C8.91407 4.94274 4.23541 0.269898 4.2328 0.267089C3.87229 -0.0934244 3.29591 -0.0853996 2.94101 0.269497L0.832495 2.37801C-0.0361886 3.46517 -1.96675 8.64658 6.30982 17.1304C15.0288 26.0682 20.6549 24.1563 21.6235 23.1478C21.6235 23.1478 23.7298 21.0664 23.7298 21.0643L23.7316 21.0601C24.1084 20.6832 24.0713 20.1064 23.7274 19.7617Z" fill="#DD2800"/>
</svg>
