<svg width="24" height="24" viewBox="0 0 24 24" fill="none" xmlns="http://www.w3.org/2000/svg">
<path d="M23.4366 17.028C23.4366 21.396 20.8937 24 16.6283 24H15.2338C14.5893 24 14.062 23.46 14.062 22.8V15.876C14.062 15.552 14.3198 15.276 14.6362 15.276L16.6986 15.24C16.8626 15.228 17.0033 15.108 17.0384 14.94L17.4486 12.648C17.4837 12.432 17.3197 12.228 17.097 12.228L14.601 12.264C14.2729 12.264 14.0151 12 14.0034 11.676L13.9565 8.736C13.9565 8.544 14.1088 8.37601 14.3081 8.37601L17.1205 8.328C17.3197 8.328 17.472 8.17201 17.472 7.96801L17.4251 5.08799C17.4251 4.88399 17.2728 4.728 17.0736 4.728L13.9096 4.77601C11.9644 4.81201 10.4176 6.444 10.4527 8.436L10.5113 11.736C10.523 12.072 10.2652 12.336 9.93713 12.348L8.53093 12.372C8.33172 12.372 8.17939 12.528 8.17939 12.732L8.21455 15.012C8.21455 15.216 8.36687 15.372 8.56608 15.372L9.97228 15.348C10.3004 15.348 10.5582 15.612 10.5699 15.936L10.6754 22.776C10.6871 23.448 10.1598 24 9.50355 24H6.80834C2.54287 24 0 21.396 0 17.016V6.972C0 2.604 2.54287 0 6.80834 0H16.6283C20.8937 0 23.4366 2.604 23.4366 6.972V17.028Z" fill="#DD2800"/>
</svg>
