<svg width="24" height="17" viewBox="0 0 24 17" fill="none" xmlns="http://www.w3.org/2000/svg">
<path d="M12.006 0.637941C9.336 0.637941 6.668 1.43792 4.361 3.03891H0L1.963 5.21743C1.06861 6.04892 0.441617 7.13702 0.1644 8.33878C-0.112816 9.54055 -0.0272945 10.7998 0.409731 11.951C0.846756 13.1023 1.61484 14.0917 2.61309 14.7894C3.61134 15.4871 4.79306 15.8603 6.003 15.86C7.51482 15.8614 8.97095 15.278 10.078 14.2274L12 16.3621L13.922 14.2295C15.0284 15.2789 16.4834 15.8616 17.994 15.86C19.585 15.86 21.1108 15.2153 22.2359 14.0676C23.3611 12.9199 23.9935 11.3632 23.994 9.73978C23.9949 8.88839 23.8213 8.04623 23.4843 7.2674C23.1472 6.48856 22.6543 5.79028 22.037 5.21743L24 3.03891H19.65C17.3962 1.47335 14.7325 0.636696 12.006 0.637941ZM12 2.6379C13.531 2.6379 15.063 2.94707 16.504 3.5593C13.943 4.55928 12 6.898 12 9.62243C12 6.89698 10.058 4.55928 7.496 3.5593C8.92314 2.95237 10.4539 2.63854 12 2.6379ZM6.002 5.59905C6.53504 5.59905 7.06285 5.70618 7.55531 5.91433C8.04777 6.12247 8.49523 6.42755 8.87215 6.81214C9.24906 7.19674 9.54804 7.65332 9.75203 8.15582C9.95601 8.65832 10.061 9.1969 10.061 9.7408C10.061 10.2847 9.95601 10.8233 9.75203 11.3258C9.54804 11.8283 9.24906 12.2849 8.87215 12.6695C8.49523 13.054 8.04777 13.3591 7.55531 13.5673C7.06285 13.7754 6.53504 13.8825 6.002 13.8825C4.92549 13.8825 3.89306 13.4462 3.13185 12.6695C2.37064 11.8927 1.943 10.8393 1.943 9.7408C1.943 8.64234 2.37064 7.58887 3.13185 6.81214C3.89306 6.03542 4.92549 5.59905 6.002 5.59905ZM17.994 5.6011C18.5268 5.60089 19.0545 5.70778 19.5469 5.91566C20.0392 6.12354 20.4866 6.42834 20.8635 6.81265C21.2404 7.19697 21.5395 7.65327 21.7436 8.1555C21.9477 8.65774 22.0528 9.19608 22.053 9.73978C22.0532 10.2835 21.9484 10.8219 21.7447 11.3243C21.541 11.8267 21.2423 12.2832 20.8656 12.6678C20.489 13.0524 20.0418 13.3575 19.5496 13.5658C19.0574 13.774 18.5298 13.8813 17.997 13.8815C16.9209 13.8819 15.8887 13.4461 15.1275 12.67C14.3663 11.8938 13.9384 10.8409 13.938 9.74284C13.9376 8.64479 14.3647 7.59154 15.1254 6.81482C15.886 6.03809 16.9179 5.6015 17.994 5.6011ZM6.002 7.57044C5.43762 7.57044 4.89635 7.79921 4.49728 8.20642C4.0982 8.61363 3.874 9.16593 3.874 9.74182C3.874 10.3177 4.0982 10.87 4.49728 11.2772C4.89635 11.6844 5.43762 11.9132 6.002 11.9132C6.56638 11.9132 7.10765 11.6844 7.50672 11.2772C7.9058 10.87 8.13 10.3177 8.13 9.74182C8.13 9.16593 7.9058 8.61363 7.50672 8.20642C7.10765 7.79921 6.56638 7.57044 6.002 7.57044ZM17.994 7.57044C17.4296 7.57044 16.8884 7.79921 16.4893 8.20642C16.0902 8.61363 15.866 9.16593 15.866 9.74182C15.866 10.3177 16.0902 10.87 16.4893 11.2772C16.8884 11.6844 17.4296 11.9132 17.994 11.9132C18.5584 11.9132 19.0996 11.6844 19.4987 11.2772C19.8978 10.87 20.122 10.3177 20.122 9.74182C20.122 9.16593 19.8978 8.61363 19.4987 8.20642C19.0996 7.79921 18.5584 7.57044 17.994 7.57044Z" fill="#DD2800"/>
</svg>
