<svg width="121" height="19" viewBox="0 0 121 19" fill="none" xmlns="http://www.w3.org/2000/svg">
<path d="M94.8131 7.64547C94.9074 7.17382 94.5301 6.60784 94.0584 6.60784L88.6816 5.8532L86.229 0.948027C86.1347 0.759367 86.0404 0.665036 85.8517 0.570706C85.38 0.287716 84.8141 0.476376 84.5311 0.948027L82.1728 5.8532L76.796 6.60784C76.513 6.60784 76.3243 6.70217 76.23 6.89083C75.8527 7.26815 75.8527 7.83413 76.23 8.21145L80.0976 11.9847L79.1542 17.3615C79.1542 17.5501 79.1542 17.7388 79.2486 17.9275C79.5316 18.3991 80.0976 18.5878 80.5692 18.3048L85.38 15.7579L90.1909 18.3048C90.2852 18.3991 90.4739 18.3991 90.6625 18.3991H90.8512C91.3228 18.3048 91.7002 17.8331 91.6058 17.2672L90.6625 11.8903L94.5301 8.11712C94.7187 8.02279 94.8131 7.83413 94.8131 7.64547Z" fill="#828282"/>
<path d="M120.262 7.64547C120.356 7.17382 119.979 6.60784 119.507 6.60784L114.13 5.8532L111.678 0.948027C111.583 0.759367 111.489 0.665036 111.3 0.570706C110.829 0.287716 110.263 0.476376 109.98 0.948027L107.622 5.8532L102.245 6.60784C101.962 6.60784 101.773 6.70217 101.679 6.89083C101.301 7.26815 101.301 7.83413 101.679 8.21145L105.546 11.9847L104.603 17.3615C104.603 17.5501 104.603 17.7388 104.697 17.9275C104.98 18.3991 105.546 18.5878 106.018 18.3048L110.829 15.7579L115.64 18.3048C115.734 18.3991 115.923 18.3991 116.111 18.3991H116.3C116.772 18.3048 117.149 17.8331 117.055 17.2672L116.111 11.8903L119.979 8.11712C120.167 8.02279 120.262 7.83413 120.262 7.64547Z" fill="#828282"/>
<path d="M44.1817 7.70773C44.276 7.23608 43.8987 6.67009 43.4271 6.67009L38.0502 5.91545L35.5977 1.01028C35.5033 0.821623 35.409 0.727292 35.2203 0.632962C34.7487 0.349972 34.1827 0.538632 33.8997 1.01028L31.5415 5.91545L26.1646 6.67009C25.8817 6.67009 25.693 6.76442 25.5987 6.95309C25.2213 7.33041 25.2213 7.89639 25.5987 8.27371L29.4662 12.0469L28.5229 17.4237C28.5229 17.6124 28.5229 17.8011 28.6172 17.9897C28.9002 18.4614 29.4662 18.65 29.9379 18.367L34.7487 15.8201L39.5595 18.367C39.6539 18.4614 39.8425 18.4614 40.0312 18.4614H40.2198C40.6915 18.367 41.0688 17.8954 40.9745 17.3294L40.0312 11.9526L43.8987 8.17938C44.0874 8.08505 44.1817 7.89639 44.1817 7.70773Z" fill="#828282"/>
<path d="M69.4974 7.70773C69.5917 7.23608 69.2144 6.67009 68.7427 6.67009L63.3659 5.91545L60.9133 1.01028C60.819 0.821623 60.7247 0.727292 60.536 0.632962C60.0644 0.349972 59.4984 0.538632 59.2154 1.01028L56.8571 5.91545L51.4803 6.67009C51.1973 6.67009 51.0087 6.76442 50.9143 6.95309C50.537 7.33041 50.537 7.89639 50.9143 8.27371L54.7819 12.0469L53.8386 17.4237C53.8386 17.6124 53.8386 17.8011 53.9329 17.9897C54.2159 18.4614 54.7819 18.65 55.2535 18.367L60.0644 15.8201L64.8752 18.367C64.9695 18.4614 65.1582 18.4614 65.3469 18.4614H65.5355C66.0072 18.367 66.3845 17.8954 66.2902 17.3294L65.3469 11.9526L69.2144 8.17938C69.4031 8.08505 69.4974 7.89639 69.4974 7.70773Z" fill="#828282"/>
<path d="M18.866 7.76998C18.9604 7.29833 18.583 6.73235 18.1114 6.73235L12.7346 5.97771L10.282 1.07254C10.1877 0.883878 10.0933 0.789548 9.90467 0.695218C9.43302 0.412227 8.86704 0.600888 8.58405 1.07254L6.22579 5.97771L0.848972 6.73235C0.565981 6.73235 0.377321 6.82668 0.282991 7.01534C-0.0943302 7.39266 -0.0943302 7.95864 0.282991 8.33596L4.15053 12.1092L3.20723 17.486C3.20723 17.6747 3.20723 17.8633 3.30156 18.052C3.58455 18.5236 4.15053 18.7123 4.62218 18.4293L9.43302 15.8824L14.2439 18.4293C14.3382 18.5236 14.5268 18.5236 14.7155 18.5236H14.9042C15.3758 18.4293 15.7531 17.9576 15.6588 17.3917L14.7155 12.0148L18.583 8.24163C18.7717 8.1473 18.866 7.95864 18.866 7.76998Z" fill="#828282"/>
</svg>
