<svg width="118" height="19" viewBox="0 0 118 19" fill="none" xmlns="http://www.w3.org/2000/svg">
<path d="M92.7657 7.20773C92.8578 6.73608 92.4894 6.17009 92.0288 6.17009L86.7782 5.41545L84.3832 0.510283C84.291 0.321623 84.1989 0.227292 84.0147 0.132962C83.5541 -0.150028 83.0014 0.038632 82.7251 0.510283L80.4222 5.41545L75.1716 6.17009C74.8952 6.17009 74.711 6.26442 74.6189 6.45309C74.2504 6.83041 74.2504 7.39639 74.6189 7.77371L78.3956 11.5469L77.4745 16.9237C77.4745 17.1124 77.4745 17.3011 77.5666 17.4897C77.8429 17.9614 78.3956 18.15 78.8562 17.867L83.5541 15.3201L88.252 17.867C88.3441 17.9614 88.5284 17.9614 88.7126 17.9614H88.8968C89.3574 17.867 89.7259 17.3954 89.6338 16.8294L88.7126 11.4526L92.4894 7.67938C92.6736 7.58505 92.7657 7.39639 92.7657 7.20773Z" fill="#828282"/>
<path d="M43.3231 7.26998C43.4152 6.79833 43.0467 6.23235 42.5861 6.23235L37.3355 5.47771L34.9405 0.572539C34.8484 0.383878 34.7563 0.289548 34.5721 0.195218C34.1115 -0.0877726 33.5588 0.100888 33.2824 0.572539L30.9795 5.47771L25.7289 6.23235C25.4526 6.23235 25.2684 6.32668 25.1762 6.51534C24.8078 6.89266 24.8078 7.45864 25.1762 7.83596L28.953 11.6092L28.0318 16.986C28.0318 17.1747 28.0318 17.3633 28.124 17.552C28.4003 18.0236 28.953 18.2123 29.4136 17.9293L34.1115 15.3824L38.8094 17.9293C38.9015 18.0236 39.0857 18.0236 39.27 18.0236H39.4542C39.9148 17.9293 40.2833 17.4576 40.1911 16.8917L39.27 11.5148L43.0467 7.74163C43.231 7.6473 43.3231 7.45864 43.3231 7.26998Z" fill="#828282"/>
<path d="M68.0445 7.26998C68.1366 6.79833 67.7682 6.23235 67.3076 6.23235L62.057 5.47771L59.662 0.572539C59.5699 0.383878 59.4777 0.289548 59.2935 0.195218C58.8329 -0.0877726 58.2802 0.100888 58.0039 0.572539L55.701 5.47771L50.4504 6.23235C50.174 6.23235 49.9898 6.32668 49.8977 6.51534C49.5292 6.89266 49.5292 7.45864 49.8977 7.83596L53.6744 11.6092L52.7533 16.986C52.7533 17.1747 52.7533 17.3633 52.8454 17.552C53.1217 18.0236 53.6744 18.2123 54.135 17.9293L58.8329 15.3824L63.5308 17.9293C63.623 18.0236 63.8072 18.0236 63.9914 18.0236H64.1756C64.6362 17.9293 65.0047 17.4576 64.9126 16.8917L63.9914 11.5148L67.7682 7.74163C67.9524 7.6473 68.0445 7.45864 68.0445 7.26998Z" fill="#828282"/>
<path d="M18.6016 7.33224C18.6938 6.86059 18.3253 6.29461 17.8647 6.29461L12.6141 5.53996L10.2191 0.634795C10.127 0.446134 10.0349 0.351804 9.85063 0.257474C9.39005 -0.0255167 8.83736 0.163144 8.56101 0.634795L6.25811 5.53996L1.00751 6.29461C0.731162 6.29461 0.54693 6.38894 0.454814 6.5776C0.0863509 6.95492 0.0863509 7.5209 0.454814 7.89822L4.23157 11.6714L3.31041 17.0482C3.31041 17.2369 3.31041 17.4256 3.40252 17.6142C3.67887 18.0859 4.23157 18.2745 4.69214 17.9916L9.39005 15.4446L14.088 17.9916C14.1801 18.0859 14.3643 18.0859 14.5485 18.0859H14.7328C15.1934 17.9916 15.5618 17.5199 15.4697 16.9539L14.5485 11.5771L18.3253 7.80389C18.5095 7.70956 18.6016 7.5209 18.6016 7.33224Z" fill="#828282"/>
<path d="M116.523 6.0919L111.498 5.34272L109.252 0.688389C109.05 0.27249 108.657 0.0622559 108.263 0.0622559C107.871 0.0622559 107.48 0.269678 107.278 0.688389L105.032 5.34237L100.006 6.09085C99.1051 6.22444 98.7439 7.35964 99.3972 8.01003L103.033 11.6311L102.172 16.7457C102.05 17.4762 102.62 18.0623 103.257 18.0623C103.427 18.0623 103.601 18.0211 103.768 17.9304L108.264 15.5159L112.759 17.9311C112.926 18.0208 113.099 18.0616 113.268 18.0616C113.907 18.0616 114.477 17.4776 114.355 16.7467L113.496 11.6318L117.132 8.01144C117.785 7.36104 117.424 6.2255 116.523 6.0919ZM112.343 10.4232L111.721 11.0426L111.868 11.9173L112.538 15.9058L109.032 14.0217L108.264 13.609L108.265 2.4578L110.017 6.08909L110.401 6.88468L111.259 7.01265L115.181 7.59729L112.343 10.4232Z" fill="#828282"/>
</svg>
