<svg width="32" height="32" viewBox="0 0 32 32" fill="none" xmlns="http://www.w3.org/2000/svg">
<path d="M20.6669 16.4443V10.8368L17.37 9.32309C13.715 13.6718 12.3487 24.9993 3.5 24.9993C2.57174 24.9993 1.6815 25.3681 1.02513 26.0245C0.368749 26.6808 0 27.5711 0 28.4993C0 29.4276 0.368749 30.3178 1.02513 30.9742C1.6815 31.6306 2.57174 31.9993 3.5 31.9993C16.79 31.9993 26.6656 24.32 29.6987 18.8531L27.3831 16.4443H20.6669ZM28.86 8.42122C30.87 4.68122 29.8237 1.65434 28.6637 0.186843C28.6195 0.131961 28.5641 0.0870565 28.5013 0.0550766C28.4385 0.0230966 28.3696 0.00476398 28.2992 0.00128175C28.2288 -0.00220047 28.1584 0.00924645 28.0928 0.0348713C28.0271 0.0604961 27.9676 0.0997196 27.9181 0.149968L26.4869 1.58747C26.4047 1.67095 26.3542 1.78046 26.3441 1.89715C26.3339 2.01384 26.3647 2.13042 26.4312 2.22684C26.86 2.87434 27.4969 4.42059 26.3437 6.74684C25.2171 6.25433 24.0008 5.99984 22.7712 5.99934C21.0212 5.99934 19.3962 6.53309 18 7.41122L22.6669 9.55434V14.4443H28.235L31.6525 17.9993C31.8562 17.2106 32 16.3975 32 15.5425C32.0012 14.2023 31.7226 12.8766 31.1819 11.6503C30.6412 10.424 29.8503 9.32419 28.86 8.42122Z" fill="#D9D9D9"/>
</svg>
