<svg width="33" height="32" viewBox="0 0 33 32" fill="none" xmlns="http://www.w3.org/2000/svg">
<path d="M21.1669 16.4443V10.8368L17.87 9.32309C14.215 13.6718 12.8487 24.9993 4 24.9993C3.07174 24.9993 2.1815 25.3681 1.52513 26.0245C0.868749 26.6808 0.5 27.5711 0.5 28.4993C0.5 29.4276 0.868749 30.3178 1.52513 30.9742C2.1815 31.6306 3.07174 31.9993 4 31.9993C17.29 31.9993 27.1656 24.32 30.1987 18.8531L27.8831 16.4443H21.1669ZM29.36 8.42122C31.37 4.68122 30.3237 1.65434 29.1637 0.186843C29.1195 0.131961 29.0641 0.0870565 29.0013 0.0550766C28.9385 0.0230966 28.8696 0.00476398 28.7992 0.00128175C28.7288 -0.00220047 28.6584 0.00924645 28.5928 0.0348713C28.5271 0.0604961 28.4676 0.0997196 28.4181 0.149968L26.9869 1.58747C26.9047 1.67095 26.8542 1.78046 26.8441 1.89715C26.8339 2.01384 26.8647 2.13042 26.9312 2.22684C27.36 2.87434 27.9969 4.42059 26.8437 6.74684C25.7171 6.25433 24.5008 5.99984 23.2712 5.99934C21.5212 5.99934 19.8962 6.53309 18.5 7.41122L23.1669 9.55434V14.4443H28.735L32.1525 17.9993C32.3562 17.2106 32.5 16.3975 32.5 15.5425C32.5012 14.2023 32.2226 12.8766 31.6819 11.6503C31.1412 10.424 30.3503 9.32419 29.36 8.42122Z" fill="#DD2800"/>
</svg>
